<svg xmlns="http://www.w3.org/2000/svg" xmlns:svg="http://www.w3.org/2000/svg" id="Layer_1" width="149.67" height="248.042" x="0" y="0" version="1.1" viewBox="0 0 149.67 248.042" xml:space="preserve"><metadata id="metadata216"/><style id="style133" type="text/css">.st0{opacity:.2038;filter:url(#filter-1);enable-background:new}.st1{fill:#fff}.st2{fill:#333}.st3{fill:none;stroke:#000}.st4{fill:#f5a623}.st5{fill:#e54733}.st6{fill:#e64934;stroke:#000}.st7,.st8{stroke:#fff;stroke-width:2}.st7{fill:#fff;fill-opacity:.2}.st8{fill:none}</style><filter id="filter-1" width="1.3" height="3.667" x="-.15" y="-1.333" filterUnits="objectBoundingBox"><feGaussianBlur id="feGaussianBlur135" in="SourceGraphic" stdDeviation="4"/></filter><g id="Page-1" transform="translate(-70.53012,-3.9640047)"><g id="Ambassador" transform="translate(-25,-10)"><g id="Group-4" transform="translate(0,4)"><g id="Group-2" transform="translate(12)"><g id="Group-17-Copy-2" transform="translate(0,54)"><g id="Group-16"><g id="Oval-8-Copy-10" class="st0" style="opacity:.20379998;filter:url(#filter-1);enable-background:new"><ellipse id="ellipse138" cx="153.4" cy="187.5" rx="40" ry="4.5"/></g><g id="Group-12-Copy-8" transform="translate(52,164)"><path id="Line-Copy-18" d="m 83.5,4.2 c -0.7,0 -1.2,0.6 -1.2,1.2 l 0.5,14 c 0,0.7 0.6,1.2 1.2,1.2 l 5.6,-0.2 c 0.7,0 1.2,-0.6 1.2,-1.2 L 90.3,5.2 C 90.3,4.5 89.7,4 89.1,4 Z"/><path id="Rectangle-7-Copy-15" d="m 70.4,17.4 c 0,-1.3 1.1,-2.4 2.4,-2.4 H 83 c 1.3,0 2.4,1.1 2.4,2.4 v 1.1 c 0,0.6 -0.4,1 -1,1 l -11.6,0.3 c -1.3,0.1 -2.4,-1 -2.4,-2.4 z"/></g><g id="Group-12-Copy-10" transform="matrix(-1,0,0,1,117,164)"><path id="Line-Copy-18_1_" d="m -57.4,4.2 c -0.7,0 -1.2,0.6 -1.2,1.2 l 0.5,14 c 0,0.7 0.6,1.2 1.2,1.2 l 5.6,-0.2 c 0.7,0 1.2,-0.6 1.2,-1.2 l -0.5,-14 C -50.6,4.5 -51.2,4 -51.8,4 Z"/><path id="Rectangle-7-Copy-15_1_" d="m -70.4,17.4 c 0,-1.3 1.1,-2.4 2.4,-2.4 h 10.2 c 1.3,0 2.4,1.1 2.4,2.4 v 1.1 c 0,0.6 -0.4,1 -1,1 L -68,19.8 c -1.4,0.1 -2.4,-1 -2.4,-2.4 z"/></g><path id="Combined-Shape" d="m 145.8,3 c 3.4,4.2 12.7,9.7 24.3,13.9 12,4.4 23,6.1 28.1,4.9 7,9.4 10.4,21.6 8.9,35 l -11,92.4 c -1.4,12.1 -12.5,21.9 -24.6,21.9 h -36 c -12.1,0 -23.2,-9.8 -24.6,-21.9 L 99.9,56.8 C 96.4,27.7 116.8,4 145.8,3 Z m 10.8,0 h 2.7 c 12.3,0 23.1,4.1 31.4,10.9 -1,2.5 -9.4,1.7 -18.8,-1.8 C 164.2,9.3 158.1,5.6 156.6,3 Z"/><g id="Group" transform="translate(42,27)"><g id="Group-3" transform="translate(43)"><path id="Oval-3-Copy-4" d="m 95.2,29.6 c 7.8,-4.5 10.5,-14.5 6,-22.3 -4.5,-7.8 -28.3,16.4 -28.3,16.4 0,0 14.5,10.4 22.3,5.9 z" class="st1" style="fill:#fff"/><ellipse id="Oval-3-Copy-5" cx="82.2" cy="19.3" rx="5.3" ry="5.2"/></g><g id="Group-3-Copy" transform="matrix(-1,0,0,1,39,0)"><path id="Oval-3-Copy-4_1_" d="m -45.7,29.6 c 7.8,-4.5 10.5,-14.5 6,-22.3 -4.5,-7.8 -28.3,16.4 -28.3,16.4 0,0 14.5,10.4 22.3,5.9 z" class="st1" style="fill:#fff"/><ellipse id="Oval-3-Copy-5_1_" cx="-58.7" cy="19.3" rx="5.3" ry="0"/></g></g><path id="Combined-Shape-Copy-13" d="m 106.9,122.5 -5.7,-10.7 1.8,-0.9 5,9.5 1,-2.1 -4.8,-9.1 1.8,-0.9 4.1,7.8 1,-2.1 -3.9,-7.4 1.8,-0.9 3.3,6.1 4.4,-8.8 c 0,0 -7.1,-17.9 -8.4,-22.2 C 106,73.5 85,76 83.6,88.2 c -1.4,12.3 18.7,43.4 18.7,43.4 z"/><path id="Combined-Shape-Copy-4" d="m 232.9,65.2 -10.1,6.8 1.1,1.7 8.9,-6 -0.1,2.3 -8.5,5.7 1.1,1.7 7.3,-4.9 -0.1,2.3 -6.9,4.7 1.1,1.7 5.7,-3.9 -0.3,9.8 c 0,0 -14.6,12.4 -17.8,15.6 C 208.9,108.1 191.6,96 196.1,84.5 200.8,73 233.2,55 233.2,55 Z"/><polygon id="Rectangle-2-Copy-18" points="194.3 156.7 114.8 157.6 102.4 69 154 114.7 204.9 66.3" class="st1" style="fill:#fff"/><g id="Rectangle-2-Copy-17"><g id="g159"><polygon id="path-2" points="154.6 172.6 145.8 177.4 131.8 179.4 112.8 165 108 126.6 102.6 72.2 155.3 150.8 204.2 74.5 199.7 120 195.6 164.1 179.8 179.4 164.7 178.4" class="st2" style="fill:#333"/></g><path id="path161" d="m 108.5,126.5 4.8,38.2 18.6,14.1 13.7,-2 8.9,-4.8 10.3,5.8 14.8,1 15.5,-14.9 4.1,-43.9 4.3,-43.5 -48.2,75.2 -52,-77.6 z" class="st3" style="fill:none;stroke:#000"/></g><path id="Rectangle-4-Copy-7" d="m 152.2,59.4 c 0.8,-0.8 2,-0.8 2.8,0 l 9.9,9.9 c 0.8,0.8 0.6,1.8 -0.4,2.3 l -8.6,4.3 c -1,0.5 -2.6,0.5 -3.6,0.1 l -9.6,-4.4 c -1,-0.5 -1.2,-1.5 -0.4,-2.2 z" class="st4" style="fill:#f5a623"/></g></g><g id="Group_1_" transform="rotate(20,46.247574,262.28303)"><path id="Shape" d="m 115.2,21.5 c 0.1,1.4 0.2,2.9 0.4,4.3 0,2.6 -8.2,4.8 -18.3,4.8 C 87.2,30.6 79,28.5 79,25.8 v 0 c 0.2,-1.4 0.3,-2.8 0.4,-4.3 -7.4,1.4 -12.2,3.7 -12.2,6.3 0,4.3 13.5,7.9 30.1,7.9 16.6,0 30.1,-3.5 30.1,-7.9 -0.1,-2.6 -4.8,-4.9 -12.2,-6.3 z"/><path id="Shape_1_" d="m 116.5,-7.5 c -0.6,2.8 -7.9,5 -19.2,5 -11.4,0 -18.7,-2.2 -19.2,-5 0,0 2.2,17.3 1.4,34 0.8,2.4 8.5,4.2 17.8,4.2 9.3,0 17,-1.9 17.8,-4.2 -0.8,-16.8 1.4,-34 1.4,-34 z" class="st5" style="fill:#e54733"/><path id="Shape-Copy" d="m 118.5,-14.2 c -0.6,2.8 -9.9,5 -21.2,5 -11.4,0 -20.7,-2.2 -21.2,-5 0,0 4.2,17.3 3.4,34 0.8,2.4 8.5,4.2 17.8,4.2 9.3,0 17,-1.9 17.8,-4.2 -0.8,-16.7 3.4,-34 3.4,-34 z"/><path id="Shape_2_" d="m 118.6,-15.5 c 0,0.1 0,0.2 0,0.3 -0.6,2.8 -9.9,5 -21.2,5 -11.4,0 -20.7,-2.2 -21.2,-5 0,-0.1 0,-0.2 0,-0.3 0,-2.9 9.5,-5.3 21.3,-5.3 11.5,0 21.1,2.4 21.1,5.3 z"/></g><path id="Path-8-Copy" d="m 132.6,139.7 c -0.9,-0.6 -1.6,-0.2 -1.5,0.9 l 2.1,26 c 0.1,1.1 0.9,1.5 1.8,0.9 L 174.7,140 c 0.9,-0.6 1.6,-0.2 1.6,0.9 v 25.3 c 0,1.1 -0.8,1.5 -1.7,0.9 z" class="st6" style="fill:#e64934;stroke:#000"/><g id="Group-2-Copy" transform="translate(81,174)"><circle id="Oval-10-Copy" cx="72.4" cy="5" r="2"/><circle id="Oval-10-Copy-2" cx="72.4" cy="13" r="2"/></g><g id="SR-71-Copy-4" transform="rotate(-56,108.8957,180.16374)"><g id="g177"><path id="path-3" d="m 133.7,239.1 v -0.6 c 0,-0.6 0.2,-1.1 0.5,-1.4 0.4,-0.3 0.8,-0.5 1.4,-0.5 0.3,0 0.5,0 0.8,0 0.9,0 1.7,0.1 2.3,0.4 v 1.5 c -0.6,-0.1 -1.4,-0.1 -2.4,-0.1 -0.3,0 -0.5,0 -0.6,0.1 -0.1,0 -0.2,0.2 -0.2,0.4 v 0.1 c 0,0.2 0,0.3 0.1,0.4 0.1,0.1 0.2,0.1 0.5,0.1 h 0.9 c 0.8,0 1.3,0.3 1.7,1 0.1,0.3 0.2,0.7 0.2,1.1 v 0.3 c 0,1.5 -0.7,2.2 -2,2.2 -1,0 -1.6,0 -1.9,0 -0.3,0 -0.7,-0.1 -1.2,-0.3 v -1.5 c 0.7,0.1 1.6,0.1 2.6,0.1 0.2,0 0.4,0 0.5,-0.1 0.1,-0.1 0.1,-0.2 0.1,-0.3 v -0.2 c 0,-0.2 0,-0.3 -0.1,-0.3 -0.1,-0.1 -0.2,-0.1 -0.4,-0.1 h -0.9 c -0.4,0 -0.7,-0.1 -0.9,-0.2 -0.3,-0.1 -0.5,-0.3 -0.6,-0.4 -0.1,-0.2 -0.2,-0.3 -0.3,-0.6 -0.1,-0.4 -0.1,-0.8 -0.1,-1.1 z m 6,4.8 v -7.3 h 3.3 c 0.7,0 1.3,0.2 1.7,0.5 0.4,0.4 0.6,1 0.6,1.8 0,0.8 -0.1,1.4 -0.4,1.7 -0.1,0.1 -0.2,0.3 -0.3,0.3 -0.1,0 -0.2,0.1 -0.4,0.2 l 1.3,2.8 h -2.2 l -0.9,-2.6 -0.6,-0.1 v 2.7 z m 1.9,-4.2 h 1.1 c 0.2,0 0.4,-0.1 0.4,-0.2 0.1,-0.1 0.1,-0.3 0.1,-0.6 0,-0.3 0,-0.5 -0.1,-0.6 -0.1,-0.1 -0.2,-0.2 -0.4,-0.2 h -1.1 z m 4,2.1 v -1.5 h 3.1 v 1.5 z m 3.6,-3.5 v -1.7 h 4.8 l 0.5,0.8 -2.3,6.5 h -2.1 l 2,-5.6 z m 8.8,-1.7 v 7.3 h -1.9 v -5.5 l -1.2,0.2 v -1.2 l 1.2,-0.8 z" class="st2" style="fill:#333"/></g><g id="g180"><path id="path-3_1_" d="m 133.7,239.1 v -0.6 c 0,-0.6 0.2,-1.1 0.5,-1.4 0.4,-0.3 0.8,-0.5 1.4,-0.5 0.3,0 0.5,0 0.8,0 0.9,0 1.7,0.1 2.3,0.4 v 1.5 c -0.6,-0.1 -1.4,-0.1 -2.4,-0.1 -0.3,0 -0.5,0 -0.6,0.1 -0.1,0 -0.2,0.2 -0.2,0.4 v 0.1 c 0,0.2 0,0.3 0.1,0.4 0.1,0.1 0.2,0.1 0.5,0.1 h 0.9 c 0.8,0 1.3,0.3 1.7,1 0.1,0.3 0.2,0.7 0.2,1.1 v 0.3 c 0,1.5 -0.7,2.2 -2,2.2 -1,0 -1.6,0 -1.9,0 -0.3,0 -0.7,-0.1 -1.2,-0.3 v -1.5 c 0.7,0.1 1.6,0.1 2.6,0.1 0.2,0 0.4,0 0.5,-0.1 0.1,-0.1 0.1,-0.2 0.1,-0.3 v -0.2 c 0,-0.2 0,-0.3 -0.1,-0.3 -0.1,-0.1 -0.2,-0.1 -0.4,-0.1 h -0.9 c -0.4,0 -0.7,-0.1 -0.9,-0.2 -0.3,-0.1 -0.5,-0.3 -0.6,-0.4 -0.1,-0.2 -0.2,-0.3 -0.3,-0.6 -0.1,-0.4 -0.1,-0.8 -0.1,-1.1 z m 6,4.8 v -7.3 h 3.3 c 0.7,0 1.3,0.2 1.7,0.5 0.4,0.4 0.6,1 0.6,1.8 0,0.8 -0.1,1.4 -0.4,1.7 -0.1,0.1 -0.2,0.3 -0.3,0.3 -0.1,0 -0.2,0.1 -0.4,0.2 l 1.3,2.8 h -2.2 l -0.9,-2.6 -0.6,-0.1 v 2.7 z m 1.9,-4.2 h 1.1 c 0.2,0 0.4,-0.1 0.4,-0.2 0.1,-0.1 0.1,-0.3 0.1,-0.6 0,-0.3 0,-0.5 -0.1,-0.6 -0.1,-0.1 -0.2,-0.2 -0.4,-0.2 h -1.1 z m 4,2.1 v -1.5 h 3.1 v 1.5 z m 3.6,-3.5 v -1.7 h 4.8 l 0.5,0.8 -2.3,6.5 h -2.1 l 2,-5.6 z m 8.8,-1.7 v 7.3 h -1.9 v -5.5 l -1.2,0.2 v -1.2 l 1.2,-0.8 z"/></g></g><circle id="Oval-10" cx="135.4" cy="97" r="19" class="st7" style="fill:#fff;fill-opacity:.2;stroke:#fff;stroke-width:2"/><path id="Path-9" d="m 116.9,93 c 0,0 -4.9,11.4 3.6,32.9 8.5,21.5 6.6,31.3 6.6,31.3" class="st8" style="fill:none;stroke:#fff;stroke-width:2"/></g></g></g></g></svg>